<svg width="50" height="50" viewBox="0 0 50 50" fill="none" xmlns="http://www.w3.org/2000/svg">
<g clip-path="url(#clip0_251_116)">
<path d="M37.6252 47.8958H41.0835C42.8335 47.8958 44.271 46.5625 44.4793 44.8542L47.9168 10.5208H37.5002V2.08334H33.396V10.5208H23.0418L23.6668 15.3958C27.2293 16.375 30.5627 18.1458 32.5627 20.1042C35.5627 23.0625 37.6252 26.125 37.6252 31.125V47.8958ZM2.0835 45.8125V43.75H33.396V45.8125C33.396 46.9583 32.4585 47.8958 31.2918 47.8958H4.18766C3.021 47.8958 2.0835 46.9583 2.0835 45.8125ZM33.396 31.2292C33.396 14.5625 2.0835 14.5625 2.0835 31.2292H33.396ZM2.12516 35.4167H33.3752V39.5833H2.12516V35.4167Z" fill="white"/>
</g>
<defs>
<clipPath id="clip0_251_116">
<rect width="50" height="50" fill="white"/>
</clipPath>
</defs>
</svg>
