<svg width="185" height="168" viewBox="0 0 185 168" fill="none" xmlns="http://www.w3.org/2000/svg">
<path d="M55.5 134.4C45.325 134.4 37.0925 141.96 37.0925 151.2C37.0925 160.44 45.325 168 55.5 168C65.675 168 74 160.44 74 151.2C74 141.96 65.675 134.4 55.5 134.4ZM0 0V16.8H18.5L51.8 80.556L39.3125 101.136C37.8325 103.488 37 106.26 37 109.2C37 118.44 45.325 126 55.5 126H166.5V109.2H59.385C58.09 109.2 57.0725 108.276 57.0725 107.1L57.35 106.092L65.675 92.4H134.588C141.525 92.4 147.63 88.956 150.775 83.748L183.89 29.232C184.63 28.056 185 26.628 185 25.2C185 20.58 180.838 16.8 175.75 16.8H38.9425L30.2475 0H0ZM148 134.4C137.825 134.4 129.592 141.96 129.592 151.2C129.592 160.44 137.825 168 148 168C158.175 168 166.5 160.44 166.5 151.2C166.5 141.96 158.175 134.4 148 134.4Z" fill="#481E1E"/>
</svg>
