<svg width="224" height="220" viewBox="0 0 224 220" fill="none" xmlns="http://www.w3.org/2000/svg">
<path d="M112 0C50.176 0 0 49.28 0 110C0 170.72 50.176 220 112 220C173.824 220 224 170.72 224 110C224 49.28 173.824 0 112 0ZM112 33C130.592 33 145.6 47.74 145.6 66C145.6 84.26 130.592 99 112 99C93.408 99 78.4 84.26 78.4 66C78.4 47.74 93.408 33 112 33ZM112 189.2C84 189.2 59.248 175.12 44.8 153.78C45.136 131.89 89.6 119.9 112 119.9C134.288 119.9 178.864 131.89 179.2 153.78C164.752 175.12 140 189.2 112 189.2Z" fill="#481E1E"/>
</svg>
